<svg width="2048" height="3215" viewBox="0 0 2048 3215" fill="none" xmlns="http://www.w3.org/2000/svg">
<path d="M35.6209 3178V3177.38H39.1952C40.5251 3177.38 41.1485 3176.67 41.2732 3174.97V3152.94C41.2732 3151.4 40.5251 3150.53 39.2367 3150.53H35.6625V3149.9H50.3751V3150.53H47.5074C46.1775 3150.53 45.4294 3151.4 45.4294 3152.94V3175.17C45.4294 3176.59 46.0112 3177.29 47.1749 3177.29H50.1258C54.8638 3177.29 58.9783 3173.14 60.2667 3167.03H60.807L60.4745 3178H35.6209ZM72.8913 3178.37C68.2364 3178.37 63.8725 3174.38 63.8725 3169.19C63.8725 3164.28 67.9871 3159.84 72.5172 3159.84C77.5877 3159.84 81.5776 3163.95 81.5776 3169.11C81.5776 3174.51 76.8396 3178.37 72.8913 3178.37ZM72.6004 3177.71C76.4656 3177.71 78.0865 3175.13 78.0865 3168.94C78.0865 3163.29 76.3409 3160.5 72.8082 3160.5C69.0261 3160.5 67.3636 3163.2 67.3636 3169.27C67.3636 3174.92 69.0677 3177.71 72.6004 3177.71ZM94.0778 3178.37C89.423 3178.37 85.059 3174.38 85.059 3169.19C85.059 3164.28 89.1736 3159.84 93.7038 3159.84C98.7742 3159.84 102.764 3163.95 102.764 3169.11C102.764 3174.51 98.0261 3178.37 94.0778 3178.37ZM93.7869 3177.71C97.6521 3177.71 99.273 3175.13 99.273 3168.94C99.273 3163.29 97.5274 3160.5 93.9947 3160.5C90.2126 3160.5 88.5502 3163.2 88.5502 3169.27C88.5502 3174.92 90.2542 3177.71 93.7869 3177.71ZM115.389 3169.31L112.355 3172.43C112.313 3176.84 112.313 3177.38 114.017 3177.38H115.347V3178H106.079V3177.38H107.534C108.781 3177.38 109.196 3176.84 109.196 3175.34V3152.4C109.196 3151.07 108.615 3150.53 107.201 3150.53H105.83V3149.9H108.116C109.28 3149.9 110.817 3149.7 111.441 3149.49H112.355V3171.43L118.88 3164.91C119.42 3164.37 119.919 3163.41 119.919 3162.87C119.919 3161.83 118.797 3161.21 116.761 3161.21H115.722V3160.59H126.195V3161.21C124.491 3161.33 122.995 3161.71 120.21 3164.49L117.633 3167.11L123.826 3175.59C124.699 3176.75 125.696 3177.38 126.777 3177.38H127.442V3178H117.426V3177.38H119.545C120.127 3177.38 120.459 3177.09 120.459 3176.63C120.459 3176.38 120.376 3176.13 120.169 3175.88L115.389 3169.31ZM147.524 3178.87C143.036 3178.87 138.256 3171.77 138.256 3165.12C138.256 3159.21 141.955 3150.74 147.607 3150.74C149.395 3150.74 150.974 3151.57 152.345 3152.98C155.172 3155.89 157.042 3160.59 157.042 3164.78C157.042 3171.85 152.304 3178.87 147.524 3178.87ZM142.786 3162.29V3166.28C142.786 3171.72 142.953 3173.68 143.659 3175.34C144.366 3177.04 145.696 3178.17 147.691 3178.17C148.771 3178.17 149.935 3177.67 150.641 3176.96C152.013 3175.51 152.512 3172.6 152.512 3166.28C152.512 3164.04 152.262 3157.47 152.138 3156.43C152.013 3155.27 151.514 3151.4 147.607 3151.4C142.994 3151.4 142.786 3156.72 142.786 3162.29ZM167.63 3167.9C168.378 3167.86 172.992 3167.32 172.992 3159.46C172.992 3153.85 171.537 3151.44 168.171 3151.44C164.222 3151.44 164.222 3156.14 164.222 3158.63C164.222 3160.92 164.388 3163.5 164.513 3164.53C164.763 3166.11 165.968 3167.9 167.63 3167.9ZM173.075 3166.49V3164.04C171.62 3167.15 169.667 3168.69 167.09 3168.69C163.183 3168.69 159.817 3164.58 159.817 3159.84C159.817 3155.02 163.765 3150.74 168.129 3150.74C173.615 3150.74 177.647 3156.47 177.647 3164.24C177.647 3170.31 174.446 3178.91 166.924 3178.91C163.931 3178.91 161.147 3176.59 161.147 3174.05C161.147 3172.51 162.269 3171.31 163.723 3171.31C165.012 3171.31 166.092 3172.43 166.092 3173.72C166.092 3174.92 165.428 3175.8 164.264 3176.09C163.807 3176.21 163.682 3176.34 163.682 3176.59C163.682 3177.34 165.594 3178.25 167.256 3178.25C168.628 3178.25 170.207 3177.58 171.205 3176.55C172.327 3175.38 173.199 3173.72 173.075 3166.49Z" fill="black"/>
</svg>
